<svg xmlns="http://www.w3.org/2000/svg" xml:space="preserve" viewBox="0 0 256 256">
  <path fill="#E41937" d="M103.734 223.081c-43.375-12.789-60.926-53.257-59.032-90.873.779-15.527 7.193-30.316 17.819-41.592-1.926 8.518-.463 35.906 14.497 48.105-3.102-13.211-2.64-26.917 1.12-40.001 11.161-30.146 42.674-38.254 39.479-65.752-1.01-8.956-3.617-17.638-8.011-25.482 17.983 6.078 33.812 17.387 45.665 32.334 9.298 12.035 14.322 26.882 14.239 42.217-.047 5.447-.649 10.734-1.941 16.081 2.581-6.382 6.209-12.346 10.863-17.409 8.218-8.079 18.284-14.006 29.057-17.291-6.36 12.342-8.712 26.289-6.409 40.024 2.396 15.389 14.042 35.406 11.287 59.382-2.192 28.404-21.737 52.431-49.165 60.111-19.541-4.667-39.91-4.493-59.468.146z"/>
  <path fill="#E41937" d="M103.697 223.158c-41.326-12.174-59.234-49.468-59.231-85.512 0-1.825.053-3.656.143-5.441.775-15.561 7.199-30.376 17.838-41.664l.25-.263-.084.354c-.41 1.821-.665 4.517-.665 7.742-.001 11.731 3.386 30.495 14.925 40.099-1.342-5.763-1.999-11.629-1.999-17.487 0-7.499 1.075-14.997 3.154-22.294 10.681-28.756 39.74-37.491 39.706-61.906 0-1.235-.075-2.502-.215-3.81-1.006-8.94-3.608-17.613-7.999-25.434l-.12-.232.247.082c17.982 6.083 33.817 17.407 45.678 32.365 9.28 11.994 14.303 26.773 14.303 42.039v.242c-.082 5.046-.595 9.974-1.689 14.924 2.549-5.957 6.052-11.542 10.401-16.323 8.224-8.094 18.338-14.028 29.123-17.313l.216-.078-.12.223c-4.745 9.221-7.256 19.352-7.256 29.604 0 3.447.29 6.904.886 10.353 2.12 13.732 11.688 31.218 11.69 51.959 0 2.423-.142 4.916-.442 7.44-2.188 28.437-21.731 52.518-49.256 60.19-9.602-2.273-19.397-3.407-29.204-3.407-10.14 0-20.294 1.199-30.226 3.547l-.034.007-.02-.006zm.037-.077.021-.108-.021.108zm-58.937-90.868c-.085 1.782-.141 3.611-.139 5.434.001 35.995 17.866 73.161 59.078 85.321 9.934-2.353 20.086-3.549 30.241-3.549 9.819 0 19.632 1.13 29.201 3.406 27.385-7.641 46.882-31.64 49.066-60.012.3-2.521.439-5.008.439-7.425.003-20.664-9.556-38.125-11.716-51.936-.57-3.456-.863-6.922-.863-10.377 0-10.214 2.49-20.292 7.19-29.493-10.66 3.287-20.679 9.191-28.8 17.199-4.624 5.038-8.274 11.002-10.85 17.369l-.184-.05c1.314-5.359 1.896-10.624 1.975-16.062-.003-.102-.001-.163-.001-.243 0-15.217-5.012-29.958-14.269-41.907-11.757-14.863-27.47-26.138-45.342-32.229 4.323 7.792 6.889 16.403 7.885 25.3.158 1.31.231 2.583.231 3.825-.036 24.6-29.122 33.31-39.707 61.956-2.094 7.292-3.171 14.763-3.171 22.246 0 5.935.677 11.892 2.065 17.714l.056.293-.215-.177c-11.801-9.627-15.215-28.606-15.218-40.442.001-3.038.216-5.595.597-7.428-10.459 11.217-16.77 25.876-17.549 41.267z"/>
  <path fill="#98012E" d="M163.2 223.073c12.089-14.797 20.817-42.524 6.805-58.318-1.095 9.16-5.146 17.849-11.722 24.528 2.529-4.71 3.291-9.948 2.529-15.368-2.015-19.262-19.98-22.876-20.491-35.195-.61-5.254.472-10.585 2.878-15.25-8.447 3.187-15.89 8.768-21.211 16.104-4.372 6.16-6.83 13.635-6.83 21.106 0 2.878.43 5.384.908 8.12-1.161-3.16-2.691-6.203-5.096-8.688-3.66-3.996-8.325-6.978-13.535-8.752 9.177 23.596-3.78 25.108-6.407 39.237-3.313 13.159 8.566 27.872 12.769 32.484 9.593 3.156 19.62 4.946 29.573 5.781 10.1-.72 20.199-2.624 29.83-5.789z"/>
  <path fill="#FFF" d="M185.316 152.533c25.412 10.133 37.83 38.974 27.707 64.387-10.132 25.448-38.966 37.835-64.378 27.701-25.448-10.133-37.855-38.938-27.722-64.385 10.147-25.4 38.944-37.831 64.393-27.703z"/>
  <path fill="#FFE57F" d="M212.127 216.569c8.226-20.614 1.279-43.572-15.48-56.487-2.666-1.703-5.518-3.197-8.563-4.405-25.403-10.133-54.246 2.255-64.379 27.702-5.386 13.511-4.399 27.953 1.508 40.075 5.273 8.872 13.408 16.202 23.77 20.305 24.897 9.929 53.245-2.262 63.144-27.19z"/>
  <path fill="#FFD740" d="M202.561 164.077c11.003 13.503 14.569 32.394 7.66 49.735-10.129 25.411-38.939 37.83-64.386 27.697-6.722-2.682-12.508-6.681-17.237-11.557 5.172 6.326 11.942 11.445 20.048 14.668 25.411 10.134 54.246-2.254 64.378-27.701 7.442-18.716 2.694-39.234-10.463-52.842z"/>
  <path fill="#37474F" d="M148.264 245.485c-25.845-10.303-38.506-39.722-28.208-65.587 10.296-25.87 39.746-38.532 65.611-28.219 25.861 10.293 38.523 39.726 28.219 65.582-10.302 25.867-39.726 38.527-65.622 28.224zm36.715-92.08c-24.933-9.9-53.28 2.283-63.197 27.185-9.911 24.93 2.278 53.237 27.201 63.169 24.897 9.93 53.245-2.262 63.145-27.189 9.932-24.885-2.252-53.233-27.149-63.165z"/>
  <path fill="#FFD740" d="M182.534 159.482c21.59 8.598 32.112 33.078 23.509 54.681-8.572 21.595-33.052 32.118-54.646 23.514-21.596-8.604-32.113-33.082-23.515-54.678 8.608-21.566 33.087-32.118 54.652-23.517z"/>
  <path fill="#FFCA28" d="M130.653 186.135c8.6-21.591 33.078-32.118 54.673-23.509 5.584 2.212 10.397 5.485 14.38 9.521-4.389-5.437-10.216-9.87-17.172-12.664-21.563-8.602-46.044 1.95-54.652 23.517-6.381 16.012-2.221 33.604 9.142 45.153-9.239-11.448-12.186-27.415-6.371-42.018z"/>
  <path fill="#FFE57F" d="M196.903 169.039c9.233 11.41 12.183 27.378 6.373 41.987-8.604 21.594-33.082 32.117-54.671 23.545-5.585-2.254-10.398-5.522-14.375-9.554 4.383 5.444 10.211 9.899 17.166 12.659 21.595 8.604 46.074-1.919 54.646-23.514 6.387-16.017 2.254-33.598-9.139-45.123z"/>
  <path fill="#37474F" d="M151.06 238.537c-22.062-8.771-32.833-33.834-24.039-55.888 8.779-22.017 33.829-32.811 55.851-24.031 22.062 8.782 32.849 33.834 24.075 55.887-8.79 22.028-33.866 32.816-55.887 24.032zm31.127-78.192c-21.081-8.367-45.03 1.943-53.439 23.028-8.405 21.048 1.911 45.027 22.992 53.437 21.092 8.409 45.072-1.903 53.443-22.991 8.404-21.086-1.912-45.066-22.996-53.474z"/>
  <path fill="#FFF" d="m170.337 195.2 6.649-16.727c4.45 2.45 5.826 5.439 4.996 8.719l9.271 3.688c1.251-6.31-4.336-13.983-12.297-17.372l1.513-3.764-5.212-2.063-1.513 3.757c-7-2.584-17.597-1.518-21.282 5.717-5.383 10.545 3.648 18.392 9.396 24.174l-6.626 16.626c-2.972-1.88-4.906-5.099-4.036-8.543l-9.763-3.877c-1.368 6.478 5.306 14.727 11.776 17.505l-2.173 5.45 5.224 2.068 2.129-5.42c8.767 3.261 17.539 1.338 21.344-5.771 5.571-10.48-1.932-17.68-9.396-24.167zm-4.431-4.017c-2.731-3.229-6.382-7.181-4.852-11.021 1.501-3.774 6.972-4.49 10.743-3.783l-5.891 14.804zm-5.487 28.892 5.868-14.722c4.491 3.91 6.378 7.123 4.848 10.989-1.531 3.823-5.238 5.166-10.716 3.733z"/>
  <path fill="#FFE57F" d="M173.597 174.385c-7.04-2.623-16.341-2.103-20.127 5.278-4.815 9.485 1.303 16.053 9.191 23.037l.464.455-7.268 18.246-.919-.523c-4.886-2.808-5.685-6.193-5.162-9.013l-7.657-3.058c-.521 5.594 4.364 12.347 11.625 15.479l.845.353-1.818 4.533 3.49 1.385 1.444-3.694.341-.845.846.322c8.538 3.183 16.817.987 20.192-5.358.012-.03.02-.057.035-.085.297-.574.535-1.124.775-1.658 3.375-8.443-2.53-14.663-10.014-21.267l-.465-.454.233-.59 6.645-16.729.416-1.003.92.527c4.009 2.326 5.739 5.457 5.098 9.056l7.691 3.049c.492-5.554-4.394-12.271-11.645-15.359l-.843-.354.344-.848 1.503-3.797-3.485-1.379-1.845 4.616-.85-.322zm-7.168 20.512-1.003-.971c-3.413-3.282-6.352-6.895-5.346-11.011.079-.342.15-.681.283-1.025.14-.304.289-.583.456-.825 1.88-3.4 6.112-4.766 11.365-3.511l1.038.264-6.793 17.079zm-6.702 26.906 5.867-14.722.513-1.294 1.011.969c3.703 3.541 6.875 7.457 5.056 12.002-1.665 4.17-6.07 5.761-11.811 4.317l-1.025-.278.389-.994z"/>
  <path fill="#37474F" d="M161.055 180.163c-1.82 4.569 1.365 8.477 5.064 12.037l1.003.972 6.791-17.109-1.042-.234c-5.683-1.365-10.186.295-11.816 4.334zm5.369 9.691c-3.641-3.718-4.679-6.389-3.642-8.999 1.154-2.872 4.386-4.156 8.589-3.448l-4.947 12.447zm-6.395 31.215 1.025.247c5.739 1.476 10.146-.152 11.807-4.284 1.817-4.556-1.36-8.463-5.061-12.003l-1.003-.97-6.768 17.01zm7.467-13.707c3.635 3.684 4.678 6.351 3.639 8.98-1.196 3.018-4.312 4.225-8.57 3.396l4.931-12.376z"/>
  <path fill="#37474F" d="m172.328 195.264 5.981-15.065c3.159 2.123 4.138 4.799 2.872 7.948l11.276 4.479c2.248-6.5-2.921-15.227-11.432-19.261l1.854-4.659-6.938-2.796-1.862 4.688c-9.22-3.087-18.002-.51-21.591 6.46-5.748 11.273 2.642 19.1 9.109 24.861l-5.964 15.006c-3.209-2.125-4.166-4.733-2.893-7.911l-11.275-4.47c-2.267 6.553 2.895 15.322 11.406 19.329l-1.836 4.617 6.956 2.757 1.827-4.586c9.117 3.053 17.9.417 21.604-6.53 5.924-11.147-2.539-19.06-9.094-24.867zm7.438 23.986c-3.364 6.32-11.648 8.515-20.181 5.358l-.851-.316-1.789 4.535-3.489-1.412 1.819-4.508-.839-.379c-7.264-3.1-12.147-9.858-11.629-15.446l7.693 3.055c-.561 2.814.231 6.197 5.13 8.981l.95.525 7.263-18.245-.49-.424c-7.896-7.017-14.007-13.587-9.192-23.072 3.774-7.354 13.089-7.873 20.124-5.25l.881.329 1.82-4.622 3.483 1.385-1.846 4.613.84.354c7.255 3.116 12.14 9.807 11.648 15.36l-7.665-3.055c.611-3.561-1.117-6.725-5.124-9.019l-.921-.528-7.293 18.321.494.45c7.955 7.071 14.127 13.664 9.164 23.01z"/>
  <path fill="none" d="M0 0h256v256H0z"/>
</svg>
